<svg xmlns="http://www.w3.org/2000/svg"  
fill="78F68F"
viewBox="0 0 1080.254 281.813">
 
 
  <path id="El-Haidi" class="cls-1" d="M106.437,379.9a93.113,93.113,0,0,0,23.731-19.573,113.856,113.856,0,0,0,16.553-24.952,110.138,110.138,0,0,0,8.789-24.056q0.879-3.587,0-5.379a3.952,3.952,0,0,0-2.491-2.241,4.132,4.132,0,0,0-3.222.448,5.992,5.992,0,0,0-2.49,2.689q-1.174,2.4-3.955,7.77t-6.885,11.953a136.274,136.274,0,0,1-9.668,13.447,92.866,92.866,0,0,1-12.305,12.551,68.971,68.971,0,0,1-14.5,9.413,37.082,37.082,0,0,1-16.26,3.736q-11.426,0-19.482-4.333a38.068,38.068,0,0,1-13.037-11.206,47.045,47.045,0,0,1-7.324-15.689A77.764,77.764,0,0,1,41.252,317a51.822,51.822,0,0,1,3.223-19.125,68.166,68.166,0,0,1,9.814-18.229A63.563,63.563,0,0,1,69.67,265.15a57.353,57.353,0,0,1,20.215-8.517,72.888,72.888,0,0,0,9.961,4.483,25.87,25.87,0,0,0,8.5,1.793,15.438,15.438,0,0,0,7.617-1.793,20.667,20.667,0,0,0,5.566-4.483,17.143,17.143,0,0,0,3.369-5.677,16.76,16.76,0,0,0,1.026-5.379q0-3.285-4.981-5.08a29.239,29.239,0,0,0-9.961-1.793,70.358,70.358,0,0,0-7.617.448q-4.106.449-8.789,1.046a81.686,81.686,0,0,1-12.451-14.344q-6.592-9.26-8.057-22.711a73.939,73.939,0,0,1,3.662-32.722,80.371,80.371,0,0,1,14.941-26,70.607,70.607,0,0,1,21.826-17.033,54.831,54.831,0,0,1,24.609-6.126q9.078,0,13.184,5.23t4.395,14.792a55.3,55.3,0,0,1-1.905,13.9,57.323,57.323,0,0,1-5.859,14.195,53.961,53.961,0,0,1-9.815,12.4,41.5,41.5,0,0,1-13.476,8.517A36.5,36.5,0,0,0,135,196.569a52.142,52.142,0,0,0,8.2,2.988,28.146,28.146,0,0,0,7.91,1.2q4.978,0,10.254-5.23a53.04,53.04,0,0,0,9.522-13.447,94.377,94.377,0,0,0,7.031-18.378,68,68,0,0,0,2.49-20.022,40.276,40.276,0,0,0-10.254-23.757,40.236,40.236,0,0,0-12.89-9.263q-7.911-3.734-19.043-3.736a96.391,96.391,0,0,0-34.131,6.575A104.37,104.37,0,0,0,72.6,132.171a98.18,98.18,0,0,0-23,29.136q-8.94,17.034-8.35,37.951A38.115,38.115,0,0,0,43.889,213a60.822,60.822,0,0,0,7.031,13.149,65.115,65.115,0,0,0,10.107,11.355,67.838,67.838,0,0,0,12.158,8.666,134.781,134.781,0,0,0-23.438,11.5,89.23,89.23,0,0,0-20.361,17.183A82.756,82.756,0,0,0,15.031,298.17Q9.613,311.324,9.9,328.053a56.939,56.939,0,0,0,5.566,23.757A61.2,61.2,0,0,0,29.68,370.786a64.914,64.914,0,0,0,20.8,12.55,71.921,71.921,0,0,0,25.635,4.483A59.26,59.26,0,0,0,106.437,379.9Zm79.823-47.215a20.1,20.1,0,0,0,3.515,3.138,18.551,18.551,0,0,0,4.1,1.793,35.429,35.429,0,0,0,4.394.3,13.737,13.737,0,0,0,3.809-.6,8.036,8.036,0,0,0,3.516-2.092q13.471-54.082,22.412-89.648t14.209-56.18q6.151-24.205,9.668-37.055,1.463-6.569,2.636-12.252,0.585-4.776.733-9.263t-1.611-5.977a3.343,3.343,0,0,0-2.637-1.942,20.571,20.571,0,0,0-4.4-.448,32.49,32.49,0,0,0-5.859.6q-3.228.6-6.445,1.494-2.637.6-5.42,1.494a22.089,22.089,0,0,0-5.127,2.391,45.18,45.18,0,0,1,.879,9.264,81.27,81.27,0,0,1-.586,9.861q-0.591,5.379-1.465,11.057-1.758,8.069-6.445,28.986-4.107,17.635-11.866,51.1t-20.654,88.752A12.423,12.423,0,0,0,186.26,332.685Zm176.062-88.453q2.046-1.94,3.809-7.022,1.758-5.379,1.025-7.471t-4.834-2.69q-9.38-.9-19.629-1.344t-25.781-.15q-7.621,0-15.381.3t-14.062.747q-6.3.449-10.84,1.046a29.7,29.7,0,0,0-6.006,1.2,12.329,12.329,0,0,0-3.955,4.184A33.556,33.556,0,0,0,263.3,239.3q-0.583,2.094-1.172,4.483a31.415,31.415,0,0,0-.879,4.333,18.692,18.692,0,0,0,0,4.632,108.14,108.14,0,0,1,16.7-3.586q8.79-1.191,16.114-1.793,8.493-.9,16.7-1.2,12.3-.294,24.9-0.448t20.8,0.15Q360.267,246.176,362.322,244.232Zm34.852,143.587a58.436,58.436,0,0,0,7.324-1.942,62.508,62.508,0,0,0,8.789-3.736q1.167-10.758,3.662-25.848t4.834-29.136q2.925-16.431,6.153-33.768,1.167-7.767,2.929-16.136t3.809-17.333a42.935,42.935,0,0,1,13.33.9,40.694,40.694,0,0,1,13.916,6.574,61.061,61.061,0,0,1,13.037,13.149,88.4,88.4,0,0,1,9.668,16.734,90.14,90.14,0,0,1,5.859,18.229,71.858,71.858,0,0,1,1.612,17.033q-0.3,5.974-1.172,13.746-0.591,6.57-1.9,15.24t-3.662,18.527a14.013,14.013,0,0,0,2.784,1.345c0.878,0.3,1.8.644,2.783,1.046a16.531,16.531,0,0,0,2.929.9,5.126,5.126,0,0,0,2.344.6h3.809q2.046-.3,4.1-0.6c1.172-.2,2.536-0.448,4.1-0.747a17.693,17.693,0,0,0,4.687-1.643q1.463-15.843,4.248-32.124t5.42-29.734q3.221-15.534,6.739-30.181,1.462-6.871,3.222-13.6t3.809-13.895q2.637,0.9,5.566,1.793,2.342,0.9,4.834,1.793t4.834,1.793a87.043,87.043,0,0,0,6.739-7.023q2.635-3.138,4.394-5.528l3.516-4.483q3.221-5.077,1.318-7.769t-8.935-3.885a38.519,38.519,0,0,0-6.3-.9q-3.956-.3-9.229-0.9,8.2-29.584,17.725-60.811t20.654-61.708a39.119,39.119,0,0,0-7.324-.449q-3.228.154-5.566,0.15-2.933.3-4.981,0.3a49.47,49.47,0,0,0-6.738,1.494,12.759,12.759,0,0,0-5.127,2.988,17.766,17.766,0,0,0-3.809,5.678,83.191,83.191,0,0,0-3.369,9.263q-1.47,5.085-4.248,15.689t-6.3,24.354q-3.516,13.749-7.471,29.883t-8.056,32.274q-8.5-.3-17.725,0t-18.9,1.494q-25.2,1.792-42.774,4.482,5.274-21.215,10.84-42.882t10.4-39.744q4.833-18.076,8.349-30.63t4.395-15.838q0.288-1.491-2.93-1.942T458.7,112q-9.963,2.394-13.623,5.827t-5.42,10.309l-20.508,89.35q-1.173,4.783-2.343,9.861t-2.344,9.563q-1.175,5.379-2.637,10.459a18.043,18.043,0,0,0-3.515,1.195,24.6,24.6,0,0,0-8.936,5.08q-3.077,2.991-3.223,5.827a4.674,4.674,0,0,0,2.784,4.483q2.925,1.646,9.082,1.046-4.107,17.334-8.643,37.054t-8.5,36.607q-3.956,16.878-6.592,28.687t-2.93,13.3q-1.167,4.776.44,6.425t8.643,1.643a27.259,27.259,0,0,0,6.738-.9h0ZM509.82,256.185c1.071,0.1,2.2.252,3.369,0.448q-2.347,10.464-4.98,22.412t-4.981,24.5q-2.052-6.87-4.98-14.343a58.81,58.81,0,0,0-7.617-13.746q-4.986-6.871-9.522-12.252a37.787,37.787,0,0,0-10.4-8.666q7.031,0,16.26.149t19.482,1.345Q508.209,256.036,509.82,256.185ZM745.062,264.4q0.729-3.587-.439-5.379a3.133,3.133,0,0,0-3.516-1.345,8.663,8.663,0,0,0-4.687,3.138q-1.758,2.4-5.713,7.471t-8.936,11.654q-4.985,6.576-10.693,13.6t-10.986,12.849a86.31,86.31,0,0,1-9.961,9.563q-4.69,3.74-7.617,3.735a8.04,8.04,0,0,1-5.42-1.643,9.406,9.406,0,0,1-2.783-4.333,21.927,21.927,0,0,1-1.026-5.828,37.086,37.086,0,0,1,.147-5.827q0.879-4.482,1.464-7.47t1.026-5.23l0.879-4.482c0.293-1.5.631-3.138,1.025-4.931q2.925-13.741,4.688-22.412t2.636-13.746a49.207,49.207,0,0,0,.879-7.023,7,7,0,0,0-.293-2.54,6.053,6.053,0,0,0-2.343-.3c-0.98,0-2.395.1-4.249,0.3a66.8,66.8,0,0,0-6.884,1.2q6.151-9.561,4.834-15.39a14.346,14.346,0,0,0-5.42-8.816,35.259,35.259,0,0,0-12.891-4.781q-6.742-.6-16.992,4.781T620.99,227.2a132.367,132.367,0,0,0-19.482,25.55,112.012,112.012,0,0,0-13.037,33.17q-3.221,13.446-2.344,23.159t4.1,15.838a22.118,22.118,0,0,0,7.911,8.964,17.131,17.131,0,0,0,8.789,2.839,62.192,62.192,0,0,0,17.578-3.884,68.894,68.894,0,0,0,16.113-9.414q8.495-6.421,15.527-18.377a49.957,49.957,0,0,0,1.026,13.447,52.3,52.3,0,0,0,2.783,8.666,15.668,15.668,0,0,0,4.395,5.976,17.153,17.153,0,0,0,6.152,2.54,26.515,26.515,0,0,0,7.471.449,34.863,34.863,0,0,0,7.763-1.494,30.34,30.34,0,0,0,6.739-2.989q4.394-2.984,10.986-10.309t13.476-16.137q6.88-8.811,13.331-17.631t10.546-14.792A22.568,22.568,0,0,0,745.062,264.4Zm-92.578,26.3a73.28,73.28,0,0,1-5.566,7.172,69.02,69.02,0,0,1-7.617,7.47,48.082,48.082,0,0,1-8.5,5.827,19.334,19.334,0,0,1-8.35,2.391,9.456,9.456,0,0,1-7.324-3.138q-1.758-1.793-2.344-7.62a59.274,59.274,0,0,1,.44-13.6,106.864,106.864,0,0,1,3.662-16.585,80.391,80.391,0,0,1,7.031-16.585q10.547-18.826,18.6-25.849t11.28-4.333a7.229,7.229,0,0,1,1.172,3.287,17.459,17.459,0,0,1-.147,4.931,27.851,27.851,0,0,1-2.783,7.919,39.314,39.314,0,0,1,4.687-.9,15.257,15.257,0,0,0,3.809-.9,27.113,27.113,0,0,1,3.223-.9q1.167-.294.439,4.632t-2.2,12.4q-1.47,7.473-3.516,15.539t-3.515,14.045A16.11,16.11,0,0,1,652.484,290.7ZM798.371,149.354a22.59,22.59,0,0,0-1.318-7.022,12.481,12.481,0,0,0-3.369-5.08,6.09,6.09,0,0,0-5.42-1.345q-3.228.6-7.618,4.034a29.882,29.882,0,0,0-7.324,8.367,18.174,18.174,0,0,0-2.636,10.459q0.288,5.534,6.445,10.31a5.936,5.936,0,0,0,5.273,1.195,17.793,17.793,0,0,0,6.3-2.54,22.336,22.336,0,0,0,5.566-5.08,17.752,17.752,0,0,0,3.37-6.425A21.534,21.534,0,0,0,798.371,149.354Zm-49.512,88.752a221.17,221.17,0,0,0-6.006,25.849,259.115,259.115,0,0,0-3.222,26.6,117.226,117.226,0,0,0,0,20.47,21.908,21.908,0,0,0,2.93,9.712,30.927,30.927,0,0,0,15.38,13.447,22.488,22.488,0,0,0,9.815,1.644q6.152-.3,15.967-7.77a178.9,178.9,0,0,0,20.068-18.079,293.094,293.094,0,0,0,19.336-22.113A158.628,158.628,0,0,0,836.9,267.989a11.8,11.8,0,0,0,1.905-6.276,4.891,4.891,0,0,0-1.758-3.884,4.184,4.184,0,0,0-4.1-.3,11.294,11.294,0,0,0-4.834,3.885,188.706,188.706,0,0,1-11.718,15.09q-7.911,9.414-17.139,18.528a165.805,165.805,0,0,1-18.164,15.688q-8.94,6.577-14.795,6.574a6.141,6.141,0,0,1-3.809-1.344,11.728,11.728,0,0,1-3.222-4.931q-1.47-2.983-.879-8.666a86.054,86.054,0,0,1,2.2-12.1q1.607-6.423,3.662-13.149t3.516-12.1q1.462-5.379,4.394-13.9t5.567-16.585q2.637-8.069,4.394-14.045t1.465-6.275a14.423,14.423,0,0,0-4.248-.15,65.142,65.142,0,0,0-8.057.9,76.483,76.483,0,0,0-8.5,1.942q-4.106,1.2-5.566,2.989Q752.519,225.859,748.859,238.106Zm189.832,5.528q8.351-16.584,14.795-33.17a279.03,279.03,0,0,0,10.4-32.124,143.023,143.023,0,0,0,4.541-28.687,122.3,122.3,0,0,0,0-17.033q-0.591-6.276-2.2-9.413a7.144,7.144,0,0,0-3.955-3.885,17.444,17.444,0,0,0-5.273-.747,15.5,15.5,0,0,0-4.981.9,30.771,30.771,0,0,0-4.98,1.793,25.963,25.963,0,0,0-5.566,3.586q-4.691,15.843-8.5,30.182t-6.738,25.4q-3.226,12.852-6.152,23.906-1.758,7.473-3.516,15.838t-3.808,17.034a55.153,55.153,0,0,0-2.784-8.965,40.588,40.588,0,0,0-4.834-8.816,24.782,24.782,0,0,0-7.031-6.574,16.948,16.948,0,0,0-9.082-2.54q-11.425,0-22.705,6.724a72.942,72.942,0,0,0-20.215,18.228,102.944,102.944,0,0,0-14.8,27.044,108.2,108.2,0,0,0-6.738,32.871q-0.584,11.059,1.758,18.826a38.956,38.956,0,0,0,6.006,12.551,22,22,0,0,0,17.138,8.965q11.427,0,23.877-8.218t24.756-22.262q-0.59,5.084-.879,7.171a24.852,24.852,0,0,0,1.319,9.563,30.229,30.229,0,0,0,4.541,8.666,26.281,26.281,0,0,0,6.591,6.275,13.971,13.971,0,0,0,7.764,2.391q5.562,0,12.451-3.735a98.52,98.52,0,0,0,14.356-9.712A155.737,155.737,0,0,0,959.2,311.917q7.471-7.768,14.209-15.838t12.3-15.689q5.562-7.62,9.082-13.3,2.342-3.585,2.344-5.976a3.345,3.345,0,0,0-4.248-3.885,6.634,6.634,0,0,0-3.663,2.092q-1.468,1.5-5.419,6.574t-9.668,11.8q-5.713,6.723-12.452,14.194t-13.476,13.746A117.953,117.953,0,0,1,935.469,316.1q-6.009,4.188-10.108,4.184A8.546,8.546,0,0,1,918.916,317q-2.933-3.285-2.637-10.758,0.289-5.077,1.612-13.447t2.783-17.631A336.369,336.369,0,0,0,938.691,243.634ZM895.039,289.5a161.32,161.32,0,0,1-11.133,12.252,81.156,81.156,0,0,1-12.3,10.161q-6.3,4.188-11.573,4.183-7.031,0-11.133-6.275t-3.515-20.619a75.1,75.1,0,0,1,4.687-20.321,115.948,115.948,0,0,1,10.254-21.366,92.157,92.157,0,0,1,13.184-17.033q7.03-7.019,13.769-7.023A8.476,8.476,0,0,1,894.6,227.2a27,27,0,0,1,3.955,8.666,49.131,49.131,0,0,1,1.611,9.562q0.288,4.637.293,6.425,0,3.586,1.172,5.23t4.394,0.149a8.914,8.914,0,0,0,1.026-.6,9.877,9.877,0,0,1,1.025-.6q-1.469,5.981-2.49,11.654t-2.2,11.355Q900.161,283.235,895.039,289.5Zm154.671-140.15a22.8,22.8,0,0,0-1.31-7.022,12.593,12.593,0,0,0-3.37-5.08,6.1,6.1,0,0,0-5.42-1.345q-3.225.6-7.62,4.034a29.853,29.853,0,0,0-7.32,8.367,18.108,18.108,0,0,0-2.64,10.459q0.285,5.534,6.44,10.31a5.956,5.956,0,0,0,5.28,1.195,17.843,17.843,0,0,0,6.3-2.54,22.313,22.313,0,0,0,5.56-5.08,17.629,17.629,0,0,0,3.37-6.425A21.312,21.312,0,0,0,1049.71,149.354Zm-49.51,88.752a221.783,221.783,0,0,0-6,25.849,259.115,259.115,0,0,0-3.222,26.6,117.226,117.226,0,0,0,0,20.47,21.907,21.907,0,0,0,2.929,9.712,30.962,30.962,0,0,0,15.386,13.447,22.469,22.469,0,0,0,9.81,1.644q6.15-.3,15.97-7.77a178.166,178.166,0,0,0,20.06-18.079,292.7,292.7,0,0,0,19.34-22.113,159.3,159.3,0,0,0,13.77-19.872,11.792,11.792,0,0,0,1.9-6.276,4.887,4.887,0,0,0-1.75-3.884,4.183,4.183,0,0,0-4.1-.3,11.25,11.25,0,0,0-4.84,3.885,187.175,187.175,0,0,1-11.72,15.09q-7.9,9.414-17.14,18.528a165.134,165.134,0,0,1-18.16,15.688q-8.94,6.577-14.8,6.574a6.131,6.131,0,0,1-3.8-1.344,11.693,11.693,0,0,1-3.23-4.931q-1.47-2.983-.88-8.666a87.1,87.1,0,0,1,2.2-12.1c1.07-4.282,2.3-8.666,3.66-13.149s2.54-8.517,3.52-12.1,2.44-8.218,4.39-13.9,3.81-11.206,5.57-16.585,3.22-10.057,4.4-14.045,1.65-6.074,1.46-6.275a14.426,14.426,0,0,0-4.25-.15,64.915,64.915,0,0,0-8.05.9,76.348,76.348,0,0,0-8.5,1.942c-2.74.8-4.59,1.793-5.57,2.989Q1003.87,225.859,1000.2,238.106Z" transform="translate(-9.906 -106.906)"/>
</svg>
